<svg width="17797" height="3312" viewBox="0 0 17797 3312" fill="none" xmlns="http://www.w3.org/2000/svg">
<g clip-path="url(#clip0_355_13)">
<path d="M3299.08 949.354H2439.95V1512.09H3299.08V949.354Z" fill="black"/>
<path d="M3299.08 1787.02H2439.95V2349.76H3299.08V1787.02Z" fill="black"/>
<path d="M313.585 0H0V506.895V670.132V1378.93H721.674V670.132H1318.77V0H695.9H313.585Z" fill="black"/>
<path d="M721.674 1920.19H0V2628.98V2981.23V3294.82H313.585H721.674H1318.77V2628.98H721.674V1920.19Z" fill="black"/>
<path d="M5236.44 494.011H4441.73V2684.83H5236.44C5915.15 2684.83 6366.2 2229.48 6366.2 1585.12C6366.2 940.766 5915.15 494.011 5236.44 494.011ZM5236.44 2293.92H4909.96V884.921H5236.44C5653.12 884.921 5889.38 1168.44 5889.38 1585.12C5889.38 2001.81 5653.12 2293.92 5236.44 2293.92Z" fill="black"/>
<path d="M7268.29 1056.75C6774.29 1056.75 6443.52 1383.22 6443.52 1881.53C6443.52 2379.83 6765.7 2702.01 7298.36 2702.01C7723.63 2702.01 8002.85 2452.86 8054.4 2139.27H7620.54C7581.87 2289.62 7457.3 2366.94 7281.18 2366.94C7057.8 2366.94 6911.75 2229.48 6903.16 2001.81V1980.33H8067.29C8075.88 1928.78 8080.17 1877.23 8080.17 1829.98C8071.58 1357.45 7749.41 1056.75 7268.29 1056.75ZM6916.04 1692.51C6941.82 1503.5 7083.58 1387.52 7272.59 1387.52C7470.19 1387.52 7607.65 1494.91 7637.72 1692.51H6916.04Z" fill="black"/>
<path d="M9209.94 1391.82C8849.1 1323.08 8677.27 1284.42 8677.27 1108.3C8677.27 940.765 8819.03 854.851 9020.93 854.851C9248.6 854.851 9390.36 983.722 9411.84 1168.44H9871.47C9867.18 747.458 9536.41 481.123 9025.22 481.123C8531.22 481.123 8213.34 756.049 8213.34 1142.66C8213.34 1585.12 8535.52 1705.4 8904.94 1774.13C9270.08 1847.16 9446.2 1881.53 9446.2 2066.24C9446.2 2238.07 9287.26 2332.58 9072.48 2332.58C8806.14 2332.58 8634.32 2186.52 8621.43 1971.74L8161.79 1967.44C8161.79 2409.9 8505.45 2706.31 9063.88 2706.31C9575.07 2706.31 9910.13 2422.79 9914.43 2014.7C9914.43 1572.24 9583.66 1460.55 9209.94 1391.82Z" fill="black"/>
<path d="M10971.2 1061.04C10743.5 1061.04 10580.3 1164.14 10477.2 1301.6L10434.2 1078.23H10051.9V3312H10490.1V2482.93C10593.1 2616.09 10752.1 2706.3 10971.2 2706.3C11400.7 2706.3 11714.3 2388.42 11714.3 1885.82C11714.3 1378.93 11400.7 1056.75 10971.2 1061.04ZM10872.4 2345.46C10631.8 2345.46 10481.5 2156.45 10481.5 1877.23C10481.5 1606.6 10631.8 1417.59 10872.4 1417.59C11112.9 1417.59 11267.6 1606.6 11267.6 1877.23C11267.6 2152.16 11112.9 2345.46 10872.4 2345.46Z" fill="black"/>
<path d="M12826.9 1078.22H12753.9C12504.7 1078.22 12380.1 1177.03 12294.2 1318.78L12255.6 1078.22H11856.1V2684.82H12294.2V1898.71C12294.2 1653.85 12393 1477.73 12655.1 1477.73H12831.2V1078.22H12826.9Z" fill="black"/>
<path d="M13621.6 1056.75C13127.6 1056.75 12796.8 1383.22 12796.8 1881.53C12796.8 2379.83 13119 2702.01 13651.7 2702.01C14076.9 2702.01 14356.2 2452.86 14407.7 2139.27H13973.8C13935.2 2289.62 13810.6 2366.94 13634.5 2366.94C13411.1 2366.94 13265.1 2229.48 13256.5 2001.81V1980.33H14420.6C14429.2 1928.78 14433.5 1877.23 14433.5 1829.98C14424.9 1357.45 14102.7 1056.75 13621.6 1056.75ZM13265.1 1692.51C13290.8 1503.5 13432.6 1387.52 13621.6 1387.52C13819.2 1387.52 13956.7 1494.91 13986.7 1692.51H13265.1Z" fill="black"/>
<path d="M16091.6 2315.4C16022.9 2315.4 15988.5 2298.21 15988.5 2216.59V1645.26C15988.5 1258.65 15730.8 1061.04 15279.7 1061.04C14854.5 1061.04 14570.9 1267.24 14536.6 1580.83H14961.9C14979 1460.55 15095 1383.22 15266.8 1383.22C15451.6 1383.22 15554.7 1477.73 15554.7 1619.49V1696.81H15236.8C14755.7 1696.81 14502.2 1890.12 14502.2 2233.78C14502.2 2538.77 14751.4 2706.31 15099.3 2706.31C15348.5 2706.31 15511.7 2603.21 15623.4 2422.79C15619.1 2577.43 15692.1 2684.83 15919.8 2684.83H16143.2V2311.1L16091.6 2315.4ZM15554.7 2023.29C15550.4 2242.37 15412.9 2388.42 15180.9 2388.42C15034.9 2388.42 14944.7 2315.4 14944.7 2203.71C14944.7 2070.54 15052.1 1993.22 15232.5 1993.22H15554.7V2023.29Z" fill="black"/>
<path d="M17358.8 494.011V1275.83C17255.7 1142.66 17096.8 1056.75 16877.7 1056.75C16452.5 1056.75 16134.6 1378.93 16134.6 1877.23C16134.6 2388.42 16448.2 2702.01 16877.7 2702.01C17109.7 2702.01 17264.3 2598.91 17371.7 2461.45L17414.7 2684.83H17797V494.011H17358.8ZM16972.2 2345.47C16731.7 2345.47 16581.3 2156.45 16581.3 1881.53C16581.3 1606.6 16736 1417.59 16972.2 1417.59C17208.5 1417.59 17363.1 1606.6 17363.1 1885.82C17363.1 2156.45 17212.8 2345.47 16972.2 2345.47Z" fill="black"/>
<path d="M2628.95 0H1847.14V670.132H2628.95H3299.08C3294.78 300.7 2998.38 0 2628.95 0Z" fill="black"/>
<path d="M1847.14 2628.98V3299.11H2628.95C2998.38 3299.11 3299.08 2998.41 3299.08 2628.98H2628.95H1847.14Z" fill="black"/>
</g>
<defs>
<clipPath id="clip0_355_13">
<rect width="17797" height="3312" fill="white"/>
</clipPath>
</defs>
</svg>
